<svg width="800" height="520" viewBox="0 0 800 520" xmlns="http://www.w3.org/2000/svg">
  <defs>
    <linearGradient id="sky" x1="0" y1="0" x2="0" y2="1">
      <stop offset="0%" stop-color="#cde5ff"/>
      <stop offset="100%" stop-color="#eef6ec"/>
    </linearGradient>
  </defs>
  <rect width="800" height="520" fill="url(#sky)"/>
  <rect x="60" y="300" width="680" height="180" rx="28" fill="#cde2c7"/>
  <path d="M160 320 Q190 260 220 320 T280 320" fill="#fff4d0" stroke="#a19360" stroke-width="6"/>
  <path d="M360 320 Q390 260 420 320 T480 320" fill="#fff4d0" stroke="#a19360" stroke-width="6"/>
  <path d="M560 320 Q590 260 620 320 T680 320" fill="#fff4d0" stroke="#a19360" stroke-width="6"/>
  <g>
    <path d="M150 295 C160 245 170 220 190 235 C210 250 220 285 210 305" fill="#3b6c38"/>
    <path d="M275 295 C285 245 295 220 315 235 C335 250 345 285 335 305" fill="#3b6c38"/>
    <path d="M480 295 C490 245 500 220 520 235 C540 250 550 285 540 305" fill="#3b6c38"/>
    <path d="M605 295 C615 245 625 220 645 235 C665 250 675 285 665 305" fill="#3b6c38"/>
  </g>
  <circle cx="200" cy="240" r="28" fill="#f4f0c2"/>
  <circle cx="520" cy="220" r="28" fill="#f4f0c2"/>
  <circle cx="645" cy="240" r="28" fill="#f4f0c2"/>
  <path d="M120 330 L120 400 L200 400 L200 330 Z" fill="#9ebf72"/>
  <path d="M440 330 L440 410 L520 410 L520 330 Z" fill="#9ebf72"/>
  <path d="M300 360 L310 300 L370 310 L358 370 Z" fill="#2d5e2c"/>
  <text x="90" y="460" font-family="Arial, sans-serif" font-size="28" fill="#194825">Growing maize</text>
</svg>