<svg width="800" height="520" viewBox="0 0 800 520" xmlns="http://www.w3.org/2000/svg">
  <defs>
    <linearGradient id="bg" x1="0" y1="0" x2="1" y2="1">
      <stop offset="0%" stop-color="#f3f7f1"/>
      <stop offset="100%" stop-color="#d6e5d3"/>
    </linearGradient>
  </defs>
  <rect width="800" height="520" rx="32" fill="url(#bg)"/>
  <rect x="120" y="240" width="560" height="170" rx="28" fill="#ffffff" stroke="#c7d9bd" stroke-width="8"/>
  <rect x="140" y="180" width="520" height="90" rx="20" fill="#e7f1e6"/>
  <rect x="310" y="140" width="180" height="80" rx="18" fill="#1f5f33"/>
  <rect x="350" y="100" width="100" height="40" rx="12" fill="#2f7647"/>
  <circle cx="380" cy="235" r="24" fill="#194825"/>
  <circle cx="420" cy="235" r="24" fill="#194825"/>
  <path d="M140 260 H660" stroke="#8cbf7e" stroke-width="16" stroke-linecap="round"/>
  <path d="M150 280 C210 310 590 310 650 280" stroke="#4b6e4f" stroke-width="14" fill="none"/>
  <path d="M190 180 L230 140 L280 180" stroke="#194825" stroke-width="12" fill="none" stroke-linecap="round"/>
  <path d="M500 180 L540 140 L590 180" stroke="#194825" stroke-width="12" fill="none" stroke-linecap="round"/>
  <text x="180" y="380" font-family="Arial, sans-serif" font-size="28" fill="#2f5d3f">Milling unit</text>
</svg>